PathFileType	4	(X/Y/Z)	Walk1_0-155.trc
DataRate	CameraRate	NumFrames	NumMarkers	Units	OrigDataRate	OrigDataStartFrame	OrigNumFrames
30	30	6	22	m	30	77	155
Frame#	Time	Hip			RHip			RKnee			RAnkle			RBigToe			RSmallToe			RHeel			LHip			LKnee			LAnkle			LBigToe			LSmallToe			LHeel			Neck			Head			Nose			RShoulder			RElbow			RWrist			LShoulder			LElbow			LWrist		
		X1	Y1	Z1	X2	Y2	Z2	X3	Y3	Z3	X4	Y4	Z4	X5	Y5	Z5	X6	Y6	Z6	X7	Y7	Z7	X8	Y8	Z8	X9	Y9	Z9	X10	Y10	Z10	X11	Y11	Z11	X12	Y12	Z12	X13	Y13	Z13	X14	Y14	Z14	X15	Y15	Z15	X16	Y16	Z16	X17	Y17	Z17	X18	Y18	Z18	X19	Y19	Z19	X20	Y20	Z20	X21	Y21	Z21	X22	Y22	Z22
78	2.6	-0.6699026948189408	0.8893717395210973	0.3629692952486987	-0.662347348038051	0.8637699444134583	0.4687085546387524	-0.6086268567375575	0.5033323989024165	0.4230353340490903	-0.6418780447261261	0.11169019290918861	0.37191030895182414	-0.43966927779423987	0.033128281662079345	0.37500378174019333	-0.47782156182988494	0.0188585784363257	0.42228481377794885	-0.6928040017409517	0.029761526068591945	0.36692779191123737	-0.6704139239171482	0.8689090400143843	0.2530963303256046	-0.5617818879122992	0.5217558841791332	0.23187167403445627	-0.8662187156681229	0.2583529039417628	0.2762441308724809	-0.8168249572839756	0.0399800847759892	0.2701208307774059	-0.8576200098507925	0.08156723865050931	0.2215026238238677	-0.9503931885973642	0.2360794306310747	0.2826028856432011	-0.7171187231858228	1.5752207985785571	0.35243525735963854	-0.6798966485279213	1.8246535788904326	0.37153773848319666	-0.5285847821290749	1.672796751775304	0.34472944189096977	-0.7497211198965856	1.4490704612214458	0.5369178963013126	-0.6619406425469736	1.1371365783066165	0.5983798120554172	-0.5768104157338633	0.891224596114271	0.6317862006260443	-0.7390970145864355	1.4558444214902804	0.1578920239228593	-0.7317362358619597	1.1404262072318283	0.12621292172186813	-0.6851049308617044	0.892734845794033	0.09563416455476031
79	2.6333333333333333	-0.6337420552434588	0.8966297949792025	0.36459605639179044	-0.6305025091575136	0.8725387705753407	0.4696045047929016	-0.6016323192055771	0.504851489100732	0.42365409341808175	-0.6383529685371818	0.11388653685098302	0.3722410524104989	-0.4398988432688171	0.029634754843085476	0.37786778407064114	-0.4793344991021093	0.017490638732998946	0.4223512087145027	-0.691258216363614	0.03176619070489691	0.36895652668377743	-0.6313521578287844	0.8792150425451972	0.25195109899438395	-0.48324540207510247	0.5394613366761384	0.2400262858751965	-0.7646192178177104	0.24950394680387028	0.27418791860463115	-0.677931555687956	0.03995326614006731	0.2754570100830371	-0.7235757404231298	0.0779769185291546	0.22142403593553875	-0.8426005436479067	0.21662421520495315	0.2825053585792935	-0.6771309152410507	1.5827281198958962	0.35339082728832844	-0.6345338451926547	1.8309891917645758	0.37065859357164743	-0.48428792199186754	1.6777965991608628	0.3436900548544633	-0.7109188405070826	1.4589014612342495	0.5343644877108298	-0.6014000767327561	1.1477734359998506	0.6025360631406064	-0.4973283210420935	0.907587886395773	0.6331682405184859	-0.6995851452041375	1.4632694473183496	0.1607208704660847	-0.7069899526736234	1.146711483820447	0.1244463387185518	-0.6702469534283199	0.8967800541065138	0.09871366724863116
80	2.6666666666666665	-0.5983673422048772	0.9026440166643516	0.3659029046537494	-0.600137420426277	0.8793327514575093	0.47052812691487944	-0.5935287599138889	0.5067617085361886	0.42415056154760983	-0.6353657443865645	0.11441451893022589	0.3718322269777324	-0.4397940754265597	0.02647925719398256	0.3814353813848841	-0.4816764339931934	0.01720871585659222	0.4242989794177686	-0.6904060889637036	0.03314123854048402	0.3679804746350401	-0.5922360512167347	0.8878328190283674	0.2505562227898815	-0.41159381584731203	0.5551675686425439	0.24935580990184442	-0.6582259396387768	0.23424945385153578	0.2712792531603802	-0.528485299795243	0.04189771586286476	0.2795963004694157	-0.5794237519097243	0.07462010297441651	0.22061690091682806	-0.7279799785342479	0.19050339858413665	0.28098768044412825	-0.6366116928543204	1.588743442913972	0.354119272842032	-0.5885540294359521	1.8358105141520622	0.3686070232344392	-0.43944707456556553	1.6808109779422475	0.34142129063085086	-0.6714872373833322	1.466839120775907	0.5325967215746136	-0.5451755386265943	1.1578088527449375	0.6052290391198333	-0.42120902676917354	0.9245500250278109	0.6322996046420581	-0.6627037141783833	1.4702031827373316	0.16189812934833497	-0.6816938000399256	1.1514810890018472	0.12285716793307415	-0.6526511476584892	0.9003447987437552	0.10091735709248568
81	2.7	-0.5630166825332015	0.9063654080885204	0.36677213366912	-0.5700559807343438	0.8829716890622877	0.47137239159282596	-0.5834544938760051	0.5080686584157181	0.42448318544795904	-0.6332443856272076	0.11336511623661916	0.37054707204435955	-0.4405623287310744	0.024072637921062644	0.3864648577278036	-0.4847109919904272	0.017640800298330376	0.4278184789085393	-0.6911161300974955	0.033134917818071305	0.3639710314326115	-0.5523314114771852	0.8931072266601346	0.24930630711854898	-0.34919843474294465	0.5654650520494148	0.2571467987608701	-0.5464769770353828	0.2141254728598605	0.26804674125278727	-0.3781354815419795	0.04965246837303779	0.27932471157385763	-0.4318015594416741	0.07481084317999775	0.2184043182000401	-0.6067235574929585	0.16054679940644132	0.2781966813695761	-0.5955829233440185	1.592390289998706	0.3548158446189232	-0.5430880408806913	1.838550452424782	0.3659807847360914	-0.39417722908416686	1.6810845161045664	0.3377702558342145	-0.6309541509503243	1.4719585061447384	0.5317825140302664	-0.4930652812151702	1.1656650154977595	0.6068047601528244	-0.34885993058589687	0.9408434877904084	0.6293241665506317	-0.6278740486537621	1.4753398181767976	0.1613525828100169	-0.655340626068285	1.1544620960340213	0.12226936869792922	-0.6320979661617744	0.902612638711958	0.10200852683594416
82	2.7333333333333334	-0.5271187208407649	0.9072263356030662	0.3671129023151631	-0.5391270327230214	0.8830041948407594	0.4719718103660889	-0.5711490693126674	0.5080484608078368	0.42467128590899333	-0.6319347564645008	0.1117316378888567	0.36863250542391457	-0.4425912420564389	0.022456168515389556	0.3931349665508256	-0.48785302917461915	0.01821520777875631	0.4324583191261101	-0.6935074169211121	0.03206981961466547	0.35832689293904846	-0.5114987785482177	0.894049943917744	0.24861618329626045	-0.2967732336024952	0.5683558003950651	0.2621614303569295	-0.4297648097722763	0.19146992314325023	0.26561132225839423	-0.23314876560642167	0.0642082537960216	0.2745857621090449	-0.285305607804907	0.0793831109886906	0.21589189589584923	-0.47995681000284096	0.12978012266800715	0.274700148691483	-0.5540880910588788	1.5931955518057028	0.35553002866423566	-0.4992951883442804	1.838795604064682	0.363409752696008	-0.35034329413729887	1.6790364198145593	0.3338876186007594	-0.5891453974960841	1.4738967106864884	0.5316098034971096	-0.4441965462175312	1.1703826288431507	0.6075340175966091	-0.28037853508534677	0.9555177737777287	0.624664158024697	-0.593206687497218	1.4774374552783338	0.15972953148183622	-0.6270145827322925	1.1556037408062252	0.1227584235739521	-0.6083174705339076	0.9031056286614906	0.10186219881633955
83	2.7666666666666666	-0.490159746466577	0.905184249441128	0.36691585857024334	-0.5062721917488202	0.8795004217800443	0.47213463398738903	-0.5563625516808727	0.5065303444272213	0.4248034943927343	-0.6312648823725628	0.11071235701744636	0.3665589847352692	-0.4450342143528532	0.02104747836873186	0.40062959034263335	-0.4903220165291009	0.018353981739577443	0.4376909652673392	-0.697173554585828	0.03125443496629722	0.353000593531947	-0.46986633241056913	0.8904548688637729	0.24861703365430476	-0.2525724360931669	0.5638981818124024	0.26503268541503866	-0.3111096462273156	0.1695254436181887	0.2650422911230181	-0.09763260698010293	0.0835992863288006	0.267884576096139	-0.14492391949362288	0.0876152757351007	0.2141498678241072	-0.35131743174049807	0.10174952878800488	0.2711537869999936	-0.5121754209314432	1.5911382314841982	0.35614838944076804	-0.45774660351245267	1.8363527377722138	0.36128241779415143	-0.31019537953099	1.6757106482324737	0.3312145137187345	-0.5461820428421392	1.472682172037824	0.5316614701568667	-0.39756906089116784	1.1716617420389825	0.6075092665196624	-0.2160032733531156	0.9678218613828274	0.6188291317148117	-0.5568094586017917	1.475884451800096	0.15779037816440525	-0.5957031077954409	1.1547522281876381	0.12404807758413348	-0.5810838560812879	0.9015600290109658	0.10054520107295098
